<svg width="22" height="22" viewBox="0 0 22 22" fill="none" xmlns="http://www.w3.org/2000/svg">
<path d="M20.8768 5.84487C20.6391 4.96128 19.9424 4.26476 19.059 4.02684C17.445 3.58524 10.989 3.58524 10.989 3.58524C10.989 3.58524 4.53324 3.58524 2.91927 4.0101C2.05281 4.24777 1.33916 4.96141 1.10149 5.84487C0.676758 7.45872 0.676758 10.8056 0.676758 10.8056C0.676758 10.8056 0.676758 14.1694 1.10149 15.7664C1.33942 16.6498 2.03581 17.3464 2.9194 17.5843C4.55024 18.026 10.9893 18.026 10.9893 18.026C10.9893 18.026 17.445 18.026 19.059 17.6011C19.9426 17.3633 20.6391 16.6668 20.877 15.7834C21.3016 14.1694 21.3016 10.8226 21.3016 10.8226C21.3016 10.8226 21.3186 7.45872 20.8768 5.84487ZM8.93355 13.8976V7.71363L14.302 10.8056L8.93355 13.8976Z" fill="black"/>
</svg>
